<?xml version="1.0" encoding="UTF-8" standalone="no"?>
<!DOCTYPE svg PUBLIC "-//W3C//DTD SVG 1.1//EN" "http://www.w3.org/Graphics/SVG/1.1/DTD/svg11.dtd">
<svg xmlns="http://www.w3.org/2000/svg" version="1.1" viewBox="0.00 0.00 307.00 294.00">
<path fill="#022d95" d="
  M 55.88 289.93
  A 47.43 47.43 0.0 0 1 8.45 242.50
  L 8.45 52.44
  A 50.63 50.59 -90.0 0 1 59.04 1.81
  L 250.14 1.81
  A 50.63 50.59 -90.0 0 1 300.73 52.44
  L 300.73 242.50
  A 47.43 47.43 0.0 0 1 253.30 289.93
  L 55.88 289.93
  Z"
/>
<path fill="#ffffff" d="
  M 111.82 128.96
  A 0.54 0.54 0.0 0 0 112.77 129.32
  L 180.79 50.81
  A 0.77 0.77 0.0 0 0 180.90 50.00
  C 177.60 42.86 187.83 37.45 191.98 44.91
  A 1.08 1.08 0.0 0 0 192.92 45.46
  L 241.08 45.46
  A 1.05 1.01 -72.5 0 0 241.93 45.00
  Q 243.76 42.27 244.93 41.86
  C 252.40 39.25 257.03 48.39 250.74 52.44
  Q 248.40 53.95 246.35 53.00
  A 1.06 1.06 0.0 0 0 245.09 53.29
  L 174.37 140.42
  A 1.07 1.06 -38.6 0 0 174.24 141.56
  Q 175.82 144.88 174.24 147.13
  A 0.90 0.90 0.0 0 0 174.27 148.19
  L 244.70 238.92
  A 1.57 1.55 73.9 0 0 245.77 239.52
  C 246.84 239.65 248.62 239.27 249.51 239.66
  C 256.43 242.64 253.62 252.82 246.10 251.21
  Q 243.28 250.61 241.85 247.72
  A 1.02 1.01 -13.2 0 0 240.94 247.16
  L 196.01 247.16
  A 1.07 1.06 -77.2 0 0 195.05 247.77
  C 192.23 253.57 184.27 252.18 183.45 245.76
  C 183.29 244.57 184.03 243.52 184.15 242.38
  A 1.36 1.35 -61.2 0 0 183.88 241.43
  L 137.62 181.36
  A 1.33 1.32 -22.7 0 0 136.38 180.86
  Q 134.48 181.13 132.83 180.72
  A 1.69 1.69 0.0 0 0 131.24 181.17
  L 116.42 195.98
  A 1.79 1.78 -28.6 0 0 115.94 197.59
  Q 116.61 200.86 114.99 203.00
  C 114.29 203.93 112.74 204.27 112.13 205.23
  A 1.69 1.66 62.3 0 0 111.85 206.16
  L 111.84 238.79
  A 1.00 0.98 12.9 0 0 112.41 239.68
  C 117.92 242.27 117.39 250.43 111.12 251.29
  Q 106.94 251.87 104.69 247.92
  A 1.51 1.50 -14.6 0 0 103.38 247.16
  L 71.48 247.16
  A 2.51 2.49 31.1 0 0 70.33 247.44
  Q 69.78 247.72 68.93 248.94
  C 67.72 250.67 66.19 251.33 64.35 251.37
  C 57.75 251.53 55.78 242.96 61.58 239.90
  A 1.45 1.43 76.5 0 0 62.35 238.62
  L 62.35 54.03
  A 1.36 1.35 -75.0 0 0 61.68 52.86
  C 52.57 47.68 63.13 35.50 69.52 44.38
  A 2.64 2.63 72.1 0 0 71.66 45.48
  L 103.45 45.48
  A 1.22 1.20 19.6 0 0 104.38 45.05
  C 106.03 43.14 106.88 41.56 109.82 41.37
  C 116.69 40.94 118.53 50.07 112.40 52.93
  A 1.00 0.99 -12.7 0 0 111.82 53.83
  L 111.82 128.96
  Z"
/>
<path fill="#022d95" d="
  M 183.61 53.12
  A 0.57 0.55 -59.8 0 1 184.21 52.95
  Q 188.84 54.44 192.09 49.78
  A 1.48 1.48 0.0 0 1 193.31 49.14
  L 241.28 49.14
  A 1.17 1.17 0.0 0 1 242.19 51.05
  L 171.46 138.19
  A 0.90 0.88 -65.9 0 1 170.65 138.51
  Q 170.07 138.44 169.29 138.29
  C 165.92 137.65 163.06 141.10 162.81 143.86
  C 162.47 147.65 166.01 151.20 169.81 150.43
  Q 170.47 150.29 170.85 150.37
  A 1.42 1.41 76.4 0 1 171.71 150.90
  L 242.04 241.39
  A 1.40 1.40 0.0 0 1 240.94 243.65
  L 196.05 243.65
  A 1.20 1.20 0.0 0 1 194.96 242.95
  Q 193.81 240.35 191.11 239.61
  C 189.96 239.29 188.36 239.72 187.13 239.37
  A 1.09 1.07 -10.2 0 1 186.59 239.00
  L 140.50 179.17
  A 1.07 1.06 36.2 0 1 140.34 178.17
  C 141.50 174.86 141.30 171.83 138.33 169.92
  C 135.65 168.21 131.54 169.04 129.67 171.92
  Q 128.21 174.16 129.21 177.10
  A 1.10 1.08 58.6 0 1 128.95 178.21
  L 113.89 193.27
  A 1.30 1.30 0.0 0 1 112.57 193.60
  C 107.03 191.84 102.16 196.94 104.85 201.94
  C 105.57 203.26 106.88 204.01 107.85 205.12
  A 1.53 1.50 25.1 0 1 108.22 206.11
  L 108.22 238.36
  A 1.93 1.92 -19.5 0 1 107.50 239.86
  Q 105.73 241.25 104.57 242.96
  A 1.58 1.56 -72.5 0 1 103.28 243.64
  L 71.11 243.64
  A 1.03 1.01 67.2 0 1 70.39 243.34
  L 66.55 239.50
  A 1.58 1.57 23.0 0 1 66.10 238.40
  L 66.10 54.13
  A 1.45 1.44 72.8 0 1 66.72 52.94
  Q 68.77 51.53 69.93 49.78
  A 1.45 1.44 -73.3 0 1 71.14 49.12
  L 103.18 49.12
  A 1.23 1.22 -21.9 0 1 104.06 49.49
  L 107.76 53.19
  A 1.50 1.50 0.0 0 1 108.20 54.25
  L 108.20 128.83
  A 1.10 1.08 -15.8 0 1 107.67 129.76
  C 101.57 133.39 103.85 141.29 110.84 141.34
  A 2.62 2.44 33.7 0 0 111.76 141.19
  Q 117.44 139.17 115.79 132.92
  A 2.27 2.26 -32.1 0 1 116.27 130.85
  L 183.61 53.12
  Z"
/>
</svg>
